<?xml version="1.0" standalone="no"?>
<svg xmlns="http://www.w3.org/2000/svg" width="217.93792866773487" height="76.35589741773488" viewBox="0 0 217.93792866773487 76.35589741773488"><path fill="#ffffff" fill-rule="nonzero" d="M0 33.65L0 0.29L5.49 0.29Q6.43 0.29 7.55 0.37Q8.67 0.45 9.79 0.75Q10.92 1.05 11.96 1.66Q13.01 2.27 13.82 3.32Q14.63 4.38 15.12 5.97Q15.61 7.56 15.61 9.82L15.61 9.82L15.61 10.66Q15.61 14.47 14.51 16.87Q13.42 19.26 11.29 20.31L11.29 20.31L16.64 33.65L11.29 33.65L6.86 21.17L4.96 21.17L4.96 33.65L0 33.65ZM4.96 17.52L5.72 17.52Q7.05 17.52 7.97 17.23Q8.89 16.93 9.45 16.24Q10.02 15.55 10.27 14.40Q10.53 13.26 10.53 11.58L10.53 11.58L10.53 8.95Q10.53 7.66 10.29 6.72Q10.06 5.78 9.50 5.18Q8.95 4.57 8.03 4.28Q7.11 3.98 5.72 3.98L5.72 3.98L4.96 3.98L4.96 17.52ZM17.99 33.65L24.14 0.29L29.96 0.29L36.13 33.65L31.02 33.65L30.10 27.68L24.00 27.68L23.13 33.65L17.99 33.65ZM24.59 23.87L29.51 23.87L27.17 7.25L26.95 7.25L24.59 23.87ZM39.36 33.65L39.36 0.29L43.46 0.29L51.54 22.62L51.66 22.62Q51.60 21.84 51.50 20.88Q51.41 19.92 51.33 18.70Q51.25 17.48 51.19 15.94Q51.13 14.39 51.13 12.46L51.13 12.46L51.13 0.29L55.66 0.29L55.66 33.65L51.52 33.65L43.48 11.91L43.32 11.91Q43.38 12.79 43.48 13.82Q43.57 14.84 43.65 16.23Q43.73 17.62 43.79 19.46Q43.85 21.31 43.85 23.85L43.85 23.85L43.85 33.65L39.36 33.65ZM61.37 33.65L61.37 0.29L66.62 0.29Q67.81 0.29 69.09 0.36Q70.37 0.43 71.59 0.78Q72.81 1.13 73.90 1.87Q74.98 2.60 75.80 3.92Q76.62 5.23 77.10 7.24Q77.58 9.24 77.58 12.13L77.58 12.13L77.58 21.82Q77.58 24.71 77.10 26.72Q76.62 28.73 75.80 30.04Q74.98 31.35 73.90 32.08Q72.81 32.81 71.59 33.16Q70.37 33.52 69.09 33.58Q67.81 33.65 66.62 33.65L66.62 33.65L61.37 33.65ZM66.43 30.12L67.71 30.12Q69.08 30.12 69.97 29.77Q70.86 29.41 71.38 28.53Q71.89 27.64 72.09 26.10Q72.29 24.57 72.29 22.23L72.29 22.23L72.29 11.88Q72.29 9.53 72.09 8.00Q71.89 6.46 71.38 5.58Q70.86 4.69 69.97 4.34Q69.08 3.98 67.71 3.98L67.71 3.98L66.43 3.98L66.43 30.12ZM89.47 33.95L89.47 33.95Q88.67 33.95 87.73 33.82Q86.80 33.69 85.88 33.28Q84.96 32.87 84.11 32.12Q83.26 31.37 82.61 30.14Q81.95 28.91 81.56 27.10Q81.17 25.29 81.17 22.79L81.17 22.79L81.17 10.98Q81.17 8.46 81.57 6.67Q81.97 4.88 82.64 3.66Q83.30 2.44 84.15 1.72Q85 1.00 85.93 0.62Q86.86 0.23 87.77 0.12Q88.69 0 89.47 0L89.47 0Q90.21 0 91.12 0.11Q92.03 0.21 92.94 0.58Q93.85 0.94 94.71 1.65Q95.57 2.36 96.23 3.58Q96.89 4.80 97.29 6.61Q97.70 8.42 97.70 10.98L97.70 10.98L97.70 22.79Q97.70 25.27 97.29 27.06Q96.88 28.85 96.21 30.09Q95.55 31.33 94.68 32.08Q93.81 32.83 92.90 33.25Q91.99 33.67 91.09 33.81Q90.20 33.95 89.47 33.95ZM89.47 30.14L89.47 30.14Q90.21 30.14 90.77 29.88Q91.33 29.63 91.69 29.00Q92.05 28.38 92.24 27.35Q92.42 26.33 92.42 24.77L92.42 24.77L92.42 9.59Q92.42 7.99 92.24 6.91Q92.05 5.84 91.69 5.19Q91.33 4.53 90.77 4.26Q90.21 3.98 89.47 3.98L89.47 3.98Q88.71 3.98 88.14 4.26Q87.58 4.53 87.21 5.19Q86.84 5.84 86.65 6.91Q86.46 7.99 86.46 9.59L86.46 9.59L86.46 24.77Q86.46 26.33 86.65 27.35Q86.84 28.38 87.21 29.00Q87.58 29.63 88.14 29.88Q88.71 30.14 89.47 30.14ZM102.48 33.65L102.48 0.29L109.08 0.29L112.29 13.20Q112.79 15.35 113.09 17.29Q113.38 19.24 113.65 20.96L113.65 20.96L113.81 20.96Q114.08 19.24 114.38 17.29Q114.67 15.35 115.18 13.20L115.18 13.20L118.48 0.29L124.94 0.29L124.94 33.65L120.21 33.65L120.21 22.62Q120.21 20.08 120.26 17.73Q120.31 15.39 120.39 13.43Q120.47 11.46 120.57 9.96Q120.66 8.46 120.74 7.58L120.74 7.58L120.37 7.58L115.33 29.36L112.13 29.36L107.05 7.58L106.68 7.58Q106.76 8.46 106.86 9.96Q106.95 11.46 107.03 13.43Q107.11 15.39 107.16 17.73Q107.21 20.08 107.21 22.62L107.21 22.62L107.21 33.65L102.48 33.65Z" transform="translate(0 0) scale(1.014)"></path><path fill="#ffffff" fill-rule="nonzero" d="M4.80 33.65L0 0.29L4.84 0.29L7.09 20.45L7.34 25.16L7.83 25.16L8.30 19.86L11.89 0.29L15.94 0.29L19.38 19.86L19.77 25.16L20.27 25.16L20.51 20.45L22.56 0.29L27.42 0.29L22.75 33.65L17.62 33.65L14.86 17.62L14.00 10.64L13.61 10.64L12.77 17.62L9.88 33.65L4.80 33.65ZM31.02 33.65L31.02 0.29L43.38 0.29L43.38 4.28L36.07 4.28L36.07 14.26L41.72 14.26L41.72 18.24L36.07 18.24L36.07 29.67L43.57 29.67L43.57 33.65L31.02 33.65ZM47.23 33.65L47.23 0.29L52.34 0.29Q53.48 0.29 54.69 0.37Q55.90 0.45 57.05 0.70Q58.20 0.96 59.24 1.46Q60.27 1.95 61.04 2.79Q61.82 3.63 62.28 4.87Q62.73 6.11 62.73 7.85L62.73 7.85L62.73 9.47Q62.73 10.80 62.35 11.91Q61.97 13.03 61.35 13.88Q60.72 14.73 59.92 15.28Q59.12 15.84 58.28 16.04L58.28 16.04L58.28 16.19Q60.76 16.64 62.02 18.54Q63.28 20.45 63.28 23.42L63.28 23.42L63.28 25.12Q63.28 26.93 62.88 28.27Q62.48 29.61 61.76 30.56Q61.04 31.50 60.04 32.11Q59.04 32.71 57.85 33.06Q56.66 33.40 55.31 33.53Q53.96 33.65 52.54 33.65L52.54 33.65L47.23 33.65ZM52.19 14.57L53.16 14.57Q54.18 14.57 55.02 14.33Q55.86 14.08 56.46 13.56Q57.05 13.05 57.37 12.22Q57.70 11.39 57.70 10.21L57.70 10.21L57.70 8.85Q57.70 7.68 57.46 6.78Q57.23 5.88 56.69 5.25Q56.15 4.63 55.28 4.31Q54.41 3.98 53.16 3.98L53.16 3.98L52.19 3.98L52.19 14.57ZM52.19 30.14L53.63 30.14Q54.65 30.14 55.48 29.87Q56.31 29.61 56.90 29.05Q57.50 28.50 57.82 27.64Q58.14 26.78 58.14 25.61L58.14 25.61L58.14 23.01Q58.14 21.84 57.91 20.93Q57.68 20.02 57.14 19.40Q56.60 18.79 55.74 18.47Q54.88 18.14 53.63 18.14L53.63 18.14L52.19 18.14L52.19 30.14ZM66.39 26.89L66.39 26.89Q66.39 25.82 66.51 24.91Q66.64 24.00 66.89 22.95L66.89 22.95L70.82 22.95L70.82 24.57Q70.82 25.92 70.99 26.95Q71.15 27.99 71.53 28.70Q71.91 29.41 72.55 29.78Q73.18 30.14 74.10 30.14L74.10 30.14Q75.55 30.14 76.31 29.35Q77.07 28.55 77.07 27.03L77.07 27.03Q77.07 26.25 76.96 25.60Q76.86 24.94 76.59 24.30Q76.33 23.65 75.88 22.94Q75.43 22.23 74.73 21.35L74.73 21.35L69.45 15.08Q68.05 13.28 67.29 11.46Q66.52 9.63 66.52 7.56L66.52 7.56Q66.52 5.90 67.04 4.51Q67.56 3.13 68.54 2.12Q69.51 1.11 70.95 0.56Q72.38 0 74.20 0L74.20 0Q76.41 0 77.88 0.63Q79.36 1.25 80.23 2.27Q81.11 3.28 81.47 4.54Q81.84 5.80 81.84 7.07L81.84 7.07Q81.84 8.14 81.67 9.05Q81.50 9.96 81.29 11.05L81.29 11.05L77.38 11.05L77.38 9.47Q77.38 6.82 76.62 5.40Q75.86 3.98 74.14 3.98L74.14 3.98Q72.71 3.98 72.01 4.78Q71.31 5.57 71.31 6.89L71.31 6.89Q71.31 7.60 71.42 8.16Q71.52 8.73 71.73 9.21Q71.93 9.69 72.23 10.14Q72.52 10.59 72.89 11.07L72.89 11.07L78.77 18.18Q80.37 20.27 81.23 22.20Q82.09 24.12 82.09 26.27L82.09 26.27Q82.09 28.05 81.53 29.47Q80.98 30.90 79.94 31.89Q78.91 32.89 77.44 33.43Q75.98 33.96 74.14 33.96L74.14 33.96Q71.88 33.96 70.38 33.36Q68.89 32.75 68.00 31.76Q67.11 30.76 66.75 29.49Q66.39 28.22 66.39 26.89ZM86.35 33.65L86.35 0.29L91.41 0.29L91.41 33.65L86.35 33.65ZM100.20 33.65L100.20 4.28L94.82 4.28L94.82 0.29L110.61 0.29L110.61 4.28L105.25 4.28L105.25 33.65L100.20 33.65ZM114.02 33.65L114.02 0.29L126.39 0.29L126.39 4.28L119.08 4.28L119.08 14.26L124.73 14.26L124.73 18.24L119.08 18.24L119.08 29.67L126.58 29.67L126.58 33.65L114.02 33.65Z" transform="translate(0 42.392) scale(1)"></path><g fill="#f6f6f6" color="#f6f6f6" transform="translate(141.583 0) scale(1.5907479)"><svg width="48.0" height="48.0" x="0.0" y="0.0" viewBox="0 0 48 48"><path fill="currentColor" fill-rule="evenodd" d="M21.088 35.003c-.108 0-.27 0-.432-.054-1.294-.27-1.294-1.403-1.348-2.212-.054-.862-.108-1.186-.54-1.887-.215-.324.054-.647.378-.647.054 0 .108 0 .216.054 1.402.7 3.344 1.887 3.29 3.182 0 .054-.216 1.564-1.564 1.564m-2.643-14.994c-.054.162-.162.27-.378.378a1.787 1.787 0 0 1-1.294 0c-.593-.27-1.133-.701-1.564-1.079-.701-.593-1.348-1.132-2.157-.97-.54.053-.971.377-1.349.97-.161.27-.27.594-.161.917.215.755 1.024 1.187 2.319 1.888 2.21 1.186 4.045 2.265 4.045 3.883v.431c0 .108-.054.162-.054.27 0 .054-.054.108-.054.162 0 .054-.054.108-.054.162-.054.107-.108.161-.216.27l-.162.161c-.431.324-1.024.485-1.564.485-.755 0-1.726-.323-1.887-1.294-.27-1.402-2.535-3.074-4.53-3.236-.972-.108-1.834.162-2.428.755l-.215.27c-.054.054-.108.162-.162.216-.054.107-.108.161-.162.27 0 .053-.054.053-.054.107-.054.054-.054.108-.108.216-.054 0-.054.054-.054.108-.054.054-.054.162-.054.215-.27 1.187 1.24 2.104 3.236 3.344 3.29 1.996 5.879 3.83 4.908 6.095-.216.485-.647.97-1.186 1.294a3.536 3.536 0 0 1-1.78.485c-1.24 0-2.265-.755-2.859-2.103-.593-1.348-1.294-2.05-2.103-2.05-.593 0-1.133.324-1.51.971-.162.378-.324.81-.324 1.295-1.833-3.236-2.912-7.011-2.912-10.949C1.618 11.596 11.649 1.564 24 1.564c1.672 0 3.344.162 4.962.54.593.162.809.54.917.863.161.539 0 1.186-.432 1.564-.377.377-.97.431-1.672.215-1.456-.431-2.912-.215-3.775.648-.593.593-.809 1.402-.54 2.157.216.647.918 1.726 3.29 2.157 1.834.324 3.183.216 4.854.108a54.109 54.109 0 0 1 3.29-.108c3.128 0 4.854 1.564 5.394 2.859.377.917.27 1.78-.324 2.373-1.186 1.186-4.207-.216-5.609-1.025-.162-.108-.27-.162-.431-.27-.378-.215-.863-.108-1.08.27-.215.378-.107.863.217 1.079.054.054.215.161.431.27 1.834 1.186 2.859 2.804 2.859 4.476 0 1.402-.755 2.642-2.05 3.451-1.025.594-1.941.648-2.643.054-.7-.593-.97-1.672-.593-2.696.378-1.133.216-2.212-.485-3.02-1.133-1.295-3.506-1.78-6.04-1.295-.162.054-.324.054-.432.108-.917.27-2.697.97-4.045 2.157-.485-1.618-2.157-2.642-3.506-3.397-.809-.486-1.887-1.133-1.887-1.51 0-.486.593-1.241 1.24-1.403.593-.162 1.133.216 1.618 1.025.755 1.348 2.157 2.265 3.398 2.157 1.025-.054 1.887-.647 2.373-1.726.377-.809.377-1.833.054-2.696-.27-.701-.917-1.618-2.427-2.212a.797.797 0 0 0-1.025.432.797.797 0 0 0 .432 1.025c.809.323 1.294.755 1.51 1.294.215.54.108 1.079 0 1.402-.216.54-.54.81-.971.81-.647.053-1.51-.54-1.942-1.349-1.186-2.103-2.804-1.942-3.397-1.78-1.349.324-2.481 1.672-2.481 2.966 0 1.295 1.294 2.05 2.642 2.859 1.996 1.186 3.236 2.05 2.75 3.613M23.947 0c1.834 0 3.614.216 5.34.594 1.078.215 1.833.97 2.103 1.995.27 1.079-.054 2.32-.863 3.128-.486.432-1.564 1.133-3.29.594-1.079-.324-1.834-.054-2.157.27-.108.107-.216.323-.162.539.108.377.701.862 2.05 1.078 1.671.27 2.912.216 4.476.108.97-.054 2.05-.108 3.397-.108 3.938 0 6.149 2.05 6.904 3.83.647 1.51.377 3.074-.647 4.098-1.025 1.025-2.481 1.079-3.884.755.54.917.81 1.888.81 2.913 0 1.995-1.025 3.775-2.859 4.854-1.564.97-3.236.97-4.476-.054-1.24-1.025-1.672-2.859-1.079-4.477.216-.593.108-1.078-.216-1.456-.72-.824-2.424-1.107-4.22-.802l-.256.047h-.054c-.054.054-.162.054-.216.108-1.186.54-2.48 3.236-2.373 6.256 0 1.672.432 5.77 4.369 7.227 1.78.701 3.505 1.025 5.123 1.025 2.75 0 5.07-.971 7.12-2.427 1.132-.755 2.21-1.726 3.235-2.697 2.178-2.333 3.708-4.966 4.014-6.891l.031-.228v-.054c0-.054.054-.108.054-.162 0 0 .03-.03.046-.068l.008-.04.108-.107.023-.023.085-.085s.054-.054.108-.054c.036 0 .072-.024.108-.04l.054-.014h.323c.054 0 .108.054.162.054 0 0 .03.03.068.045l.04.009.216.215s.053.054.053.108c0 .036.024.072.04.108l.014.054v.054c.216 1.348.324 2.157.324 3.667 0 12.868-10.202 23.41-23.07 23.881l-.39.012h-1.834c-1.618-.054-3.236-.27-4.746-.702-.122 0-.243-.03-.364-.068l-.122-.04h-.054c-.054 0-.108-.053-.162-.053C7.281 44.063 0 34.84 0 23.946 0 10.733 10.787-.054 23.946 0zm16.611 18.23c.378 0 .701.108 1.079.323 1.618 1.079 2.373 2.265 2.157 3.506 0 .108-.054.162-.054.216-.323.917-1.132 1.833-2.373 1.833-.27 0-.593-.054-.863-.161a2.387 2.387 0 0 1-1.51-1.618 3.42 3.42 0 0 1-.073-1.096l.02-.145v-.216c-.055 0-.055 0-.055-.054-.27-.539-.215-1.186.108-1.725.378-.54.917-.863 1.564-.863zm0 1.672c-.161 0-.27.161-.215.323.215.378.215.54.16 1.025-.053.431-.106 1.025.54 1.24a.687.687 0 0 0 .324.054c.594 0 .81-.7.81-.647.107-.701-.864-1.456-1.51-1.941 0-.054-.055-.054-.109-.054zM35.542 2.319c.754.108 3.073.378 3.667 2.104 0 .054.054.162.054.215.054.216.161 1.133-.432 1.942-.377.54-1.025.863-1.726.97h-.323c-.7 0-1.348-.269-1.834-.808-.323-.324-.485-.701-.593-.97v-.055c0-.054-.054-.108-.054-.108l-.054-.054c-.593-.431-.862-1.24-.647-1.995.216-.755.917-1.24 1.726-1.24zm-.162 1.564c-.216 0-.324.27-.216.378.378.27.485.431.648.809.161.377.376.863.97.863h.162c.868-.097.83-.84.812-.996l-.003-.029c-.216-.647-1.51-.917-2.373-1.025z"></path></svg></g></svg>